<?xml version="1.0" encoding="UTF-8"?>
<svg version="1.1" xmlns="http://www.w3.org/2000/svg" width="392" height="491">
<path d="M0 0 C0.74741959 -0.00570007 1.49483917 -0.01140015 2.26490784 -0.01727295 C3.84057226 -0.0266588 5.41625575 -0.03323116 6.99194336 -0.03710938 C9.34200707 -0.04672404 11.69115966 -0.07777034 14.04101562 -0.109375 C41.19355411 -0.29952582 69.01157404 7.375218 89.94140625 25.203125 C90.59238281 25.74195312 91.24335938 26.28078125 91.9140625 26.8359375 C103.20399338 37.0714557 111.05609674 53.34386522 112.09667969 68.45849609 C112.80308645 83.72213636 110.93416029 97.49838892 106.94140625 112.203125 C106.64669434 113.29206055 106.35198242 114.38099609 106.04833984 115.50292969 C99.94010409 137.69332751 91.66315693 158.5821746 82.62890625 179.703125 C72.63186897 203.07711674 62.75278452 226.37187842 56.94140625 251.203125 C56.71759277 252.14397949 56.4937793 253.08483398 56.26318359 254.05419922 C50.10150407 280.37418879 48.02158319 307.00804022 47.55380249 333.9703064 C46.69451129 381.03371175 42.07862954 431.40163989 10.94140625 469.203125 C10.3071875 470.00105469 9.67296875 470.79898437 9.01953125 471.62109375 C1.98061315 480.07070411 -7.37130864 487.9583654 -18.05859375 491.203125 C-19.04859375 491.203125 -20.03859375 491.203125 -21.05859375 491.203125 C-20.79691406 490.57019531 -20.53523437 489.93726563 -20.265625 489.28515625 C-7.9899947 457.94058567 -2.98228051 424.31785005 -2.85546875 390.7421875 C-2.8448793 388.8646151 -2.8448793 388.8646151 -2.83407593 386.94911194 C-2.81650292 382.90874118 -2.80938102 378.86852608 -2.80859375 374.828125 C-2.80829918 374.13597019 -2.80800461 373.44381538 -2.80770111 372.73068619 C-2.80526796 337.2906928 -5.86699918 302.80588638 -10.37734985 267.66461182 C-12.29102013 252.71351028 -13.29822168 238.08642059 -13.30859375 223.015625 C-13.30926849 222.13084473 -13.30994324 221.24606445 -13.31063843 220.33447266 C-13.2930645 205.77340733 -12.58270511 191.57209064 -10.05859375 177.203125 C-9.8869873 176.21006348 -9.71538086 175.21700195 -9.53857422 174.19384766 C-4.35698407 145.12785896 6.46467739 117.77570684 17.66723633 90.57495117 C22.1789356 79.49680056 26.04479598 67.0810271 21.44140625 55.328125 C16.12677746 45.41359337 5.44971709 38.14325558 -5.08203125 34.50390625 C-21.11625427 32.06391579 -33.17645257 38.24061665 -47.12109375 45.078125 C-71.23911858 56.87795864 -95.70318021 62.85961699 -122.49609375 63.640625 C-158.73268236 64.87042553 -158.73268236 64.87042553 -190.05859375 81.515625 C-199.61023611 92.06272388 -200.86615718 105.13895691 -200.24951172 118.68212891 C-198.85514438 137.09419685 -190.70119229 154.45412587 -183.55859375 171.203125 C-164.03338122 217.0141838 -157.65042117 261.28455121 -157.97955322 310.72802734 C-158.02846146 318.23138147 -158.06221895 325.73480735 -158.0859375 333.23828125 C-158.08853703 334.04771179 -158.09113655 334.85714233 -158.09381485 335.69110107 C-158.12237615 346.7141411 -158.00054836 357.72089148 -157.640625 368.73828125 C-157.60323715 369.8987648 -157.5658493 371.05924835 -157.52732849 372.25489807 C-156.18667524 407.98813194 -149.93492071 445.50834321 -133.30078125 477.59375 C-131.8460859 480.64952514 -132.03371515 482.03531842 -133.05859375 485.203125 C-135.41722914 486.03869539 -136.66264864 486.33716089 -139.06640625 485.5234375 C-145.52176162 481.87890107 -150.72072114 477.31821494 -156.05859375 472.203125 C-156.67605469 471.64882813 -157.29351562 471.09453125 -157.9296875 470.5234375 C-202.72974095 428.93077818 -205.91777931 347.70127883 -209.55859375 290.828125 C-212.78503937 240.51917084 -222.59345075 192.94671926 -241.05200195 145.94262695 C-253.52729774 114.12288768 -253.81056623 89.04556499 -240.53344727 57.4934082 C-235.51924158 46.1212478 -229.0127081 35.76697278 -217.171875 30.9296875 C-199.23024535 24.76121594 -177.09198797 30.51927324 -158.931427 33.39146423 C-158.09296234 33.52396072 -157.25449768 33.65645721 -156.390625 33.79296875 C-155.56907928 33.92284683 -154.74753357 34.05272491 -153.90109253 34.1865387 C-120.68233337 39.33800152 -94.17660944 33.05544573 -65.05859375 17.203125 C-45.42275469 6.52159218 -22.42004044 0.13752527 0 0 Z " fill="#A6269B" transform="translate(251.05859375,-0.203125)"/>
<path d="M0 0 C2.85523949 1.8145936 5.44049616 3.79000824 8 6 C8.57234375 6.47824219 9.1446875 6.95648438 9.734375 7.44921875 C46.39414029 40.82978485 48.24925412 111.15853527 50.484375 157.45239258 C52.08528329 192.79628777 52.83508808 230.6818203 43 265 C42.34 265 41.68 265 41 265 C39.97614532 258.62548167 38.95608872 252.25036176 37.9375 245.875 C37.78105011 244.89705475 37.62460022 243.9191095 37.46340942 242.91152954 C35.65401914 231.59034926 33.87451397 220.2659022 32.1875 208.92578125 C25.57682383 140.36927248 25.57682383 140.36927248 -7 83 C-12.26537708 79.73297863 -17.66160468 78.09950825 -23.83984375 79.2109375 C-31.7785583 82.11079345 -36.54666734 89.68872078 -40 97 C-42.33059166 102.55525298 -44.21027076 108.25136 -46 114 C-46.22042969 114.7017334 -46.44085938 115.4034668 -46.66796875 116.12646484 C-61.20051143 163.56640911 -61.038554 215.81773819 -62 265 C-63.66611905 265.042721 -65.33382885 265.04063832 -67 265 C-69.07316759 262.92683241 -68.74980128 258.79567668 -69.0859375 255.9375 C-69.23825333 254.67531647 -69.23825333 254.67531647 -69.39364624 253.38763428 C-69.7274278 250.59249602 -70.05240078 247.7964501 -70.375 245 C-70.48638306 244.04017212 -70.59776611 243.08034424 -70.71252441 242.09143066 C-74.27554627 211.14993856 -76.44047773 180.14169906 -77 149 C-77.02489502 147.80842285 -77.02489502 147.80842285 -77.05029297 146.59277344 C-77.13695114 142.05873225 -77.10064731 137.53303766 -77 133 C-76.98211426 132.04754395 -76.96422852 131.09508789 -76.94580078 130.11376953 C-75.01484836 36.73742062 -75.01484836 36.73742062 -47.21484375 8.08203125 C-34.45053878 -3.91686566 -16.09988038 -9.52428821 0 0 Z " fill="#A6279B" transform="translate(190,205)"/>
<path d="M0 0 C0.74741959 -0.00570007 1.49483917 -0.01140015 2.26490784 -0.01727295 C3.84057226 -0.0266588 5.41625575 -0.03323116 6.99194336 -0.03710938 C9.34200707 -0.04672404 11.69115966 -0.07777034 14.04101562 -0.109375 C41.19355411 -0.29952582 69.01157404 7.375218 89.94140625 25.203125 C90.59238281 25.74195312 91.24335938 26.28078125 91.9140625 26.8359375 C103.20399338 37.0714557 111.05609674 53.34386522 112.09667969 68.45849609 C112.80308645 83.72213636 110.93416029 97.49838892 106.94140625 112.203125 C106.64669434 113.29206055 106.35198242 114.38099609 106.04833984 115.50292969 C99.94010409 137.69332751 91.66315693 158.5821746 82.62890625 179.703125 C72.63186897 203.07711674 62.75278452 226.37187842 56.94140625 251.203125 C56.71759277 252.14397949 56.4937793 253.08483398 56.26318359 254.05419922 C50.10150407 280.37418879 48.02158319 307.00804022 47.55380249 333.9703064 C46.69451129 381.03371175 42.07862954 431.40163989 10.94140625 469.203125 C10.3071875 470.00105469 9.67296875 470.79898437 9.01953125 471.62109375 C1.98061315 480.07070411 -7.37130864 487.9583654 -18.05859375 491.203125 C-19.04859375 491.203125 -20.03859375 491.203125 -21.05859375 491.203125 C-20.79691406 490.57019531 -20.53523437 489.93726563 -20.265625 489.28515625 C-7.9899947 457.94058567 -2.98228051 424.31785005 -2.85546875 390.7421875 C-2.8448793 388.8646151 -2.8448793 388.8646151 -2.83407593 386.94911194 C-2.81650292 382.90874118 -2.80938102 378.86852608 -2.80859375 374.828125 C-2.80829918 374.13597019 -2.80800461 373.44381538 -2.80770111 372.73068619 C-2.80526796 337.2906928 -5.86699918 302.80588638 -10.37734985 267.66461182 C-12.29102013 252.71351028 -13.29822168 238.08642059 -13.30859375 223.015625 C-13.30926849 222.13084473 -13.30994324 221.24606445 -13.31063843 220.33447266 C-13.2930645 205.77340733 -12.58270511 191.57209064 -10.05859375 177.203125 C-9.8869873 176.21006348 -9.71538086 175.21700195 -9.53857422 174.19384766 C-4.35698407 145.12785896 6.46467739 117.77570684 17.66723633 90.57495117 C22.1789356 79.49680056 26.04479598 67.0810271 21.44140625 55.328125 C16.12677746 45.41359337 5.44971709 38.14325558 -5.08203125 34.50390625 C-21.11625427 32.06391579 -33.17645257 38.24061665 -47.12109375 45.078125 C-71.23911858 56.87795864 -95.70318021 62.85961699 -122.49609375 63.640625 C-158.73268236 64.87042553 -158.73268236 64.87042553 -190.05859375 81.515625 C-199.61023611 92.06272388 -200.86615718 105.13895691 -200.24951172 118.68212891 C-198.85514438 137.09419685 -190.70119229 154.45412587 -183.55859375 171.203125 C-164.03338122 217.0141838 -157.65042117 261.28455121 -157.97955322 310.72802734 C-158.02846146 318.23138147 -158.06221895 325.73480735 -158.0859375 333.23828125 C-158.08853703 334.04771179 -158.09113655 334.85714233 -158.09381485 335.69110107 C-158.12237615 346.7141411 -158.00054836 357.72089148 -157.640625 368.73828125 C-157.60323715 369.8987648 -157.5658493 371.05924835 -157.52732849 372.25489807 C-156.18667524 407.98813194 -149.93492071 445.50834321 -133.30078125 477.59375 C-131.8460859 480.64952514 -132.03371515 482.03531842 -133.05859375 485.203125 C-135.41722914 486.03869539 -136.66264864 486.33716089 -139.06640625 485.5234375 C-145.52176162 481.87890107 -150.72072114 477.31821494 -156.05859375 472.203125 C-156.67605469 471.64882813 -157.29351562 471.09453125 -157.9296875 470.5234375 C-202.72974095 428.93077818 -205.91777931 347.70127883 -209.55859375 290.828125 C-212.78503937 240.51917084 -222.59345075 192.94671926 -241.05200195 145.94262695 C-253.52729774 114.12288768 -253.81056623 89.04556499 -240.53344727 57.4934082 C-235.51924158 46.1212478 -229.0127081 35.76697278 -217.171875 30.9296875 C-199.23024535 24.76121594 -177.09198797 30.51927324 -158.931427 33.39146423 C-158.09296234 33.52396072 -157.25449768 33.65645721 -156.390625 33.79296875 C-155.56907928 33.92284683 -154.74753357 34.05272491 -153.90109253 34.1865387 C-120.68233337 39.33800152 -94.17660944 33.05544573 -65.05859375 17.203125 C-45.42275469 6.52159218 -22.42004044 0.13752527 0 0 Z M-70.24609375 25.328125 C-101.3961274 42.96701925 -134.6457918 43.08690669 -169.14990234 36.73779297 C-195.13909003 31.15109585 -195.13909003 31.15109585 -220.05859375 37.203125 C-226.15329403 41.68199559 -229.86511423 46.39219606 -233.18359375 53.140625 C-233.60390869 53.97037842 -234.02422363 54.80013184 -234.45727539 55.6550293 C-245.87136216 78.63907899 -251.28811797 102.52936092 -243.29046631 127.61218262 C-241.14010381 133.77276257 -238.72451295 139.8304743 -236.30859375 145.890625 C-229.02803892 164.34067415 -222.03323353 182.82914753 -217.37109375 202.140625 C-217.08129639 203.32897949 -216.79149902 204.51733398 -216.49291992 205.74169922 C-209.87064165 233.36945101 -206.43078464 261.4756101 -205.05859375 289.828125 C-202.48667958 342.51494537 -196.44088299 397.0442064 -171.05859375 444.203125 C-170.50558594 445.26015625 -169.95257813 446.3171875 -169.3828125 447.40625 C-162.5280264 459.90519173 -151.60966839 474.64370976 -138.05859375 480.203125 C-139.46919489 475.79139796 -141.09148378 471.48919057 -142.77416992 467.17675781 C-152.11498133 443.14682051 -158.46331127 419.4995557 -160.671875 393.70703125 C-160.73648926 392.95755344 -160.80110352 392.20807564 -160.86767578 391.43588638 C-162.9548043 366.36635086 -162.52631176 341.16327545 -162.56390381 316.02758789 C-162.57558549 309.01809489 -162.59951892 302.00883461 -162.63859558 294.99943924 C-162.65180355 291.79511744 -162.64806888 288.59114667 -162.64318848 285.3868103 C-162.74938858 245.06472147 -172.84982616 209.21262601 -188.05859375 172.203125 C-210.80797814 116.61923669 -210.80797814 116.61923669 -202.3671875 93.1953125 C-196.66812141 80.16401511 -187.75579099 72.15414108 -174.62109375 66.828125 C-162.56882099 62.22738534 -150.27048846 60.270721 -137.44921875 59.7734375 C-135.8008317 59.70237409 -134.15247645 59.63056989 -132.50415039 59.55810547 C-131.65499054 59.52118591 -130.80583069 59.48426636 -129.93093872 59.44622803 C-98.32311111 58.02270055 -72.19021778 52.16440982 -43.64892578 38.12768555 C-30.22256923 31.56472055 -16.51709521 25.93628469 -1.55859375 30.640625 C9.61770956 35.2647388 19.65645554 42.91870879 25.81640625 53.390625 C33.605456 72.86324938 20.94284569 94.6200955 13.88671875 112.65234375 C-7.73995944 167.92217174 -13.79197367 222.0410512 -4.18652344 280.72631836 C3.56658043 329.07188056 5.88242438 381.76135974 -1.05859375 430.203125 C-1.21376465 431.35055176 -1.36893555 432.49797852 -1.52880859 433.68017578 C-3.52084968 448.34736516 -5.97483896 462.45428744 -10.87109375 476.453125 C-12.42501987 480.08363481 -12.42501987 480.08363481 -11.05859375 483.203125 C23.39440818 455.72794625 36.12945895 416.78202136 41.31445312 374.13476562 C43.2245454 357.07956303 43.3044671 339.87189194 43.51269531 322.72851562 C43.74757157 306.03463524 44.90985539 289.47526023 47.81640625 273.015625 C47.98930176 272.01499023 48.16219727 271.01435547 48.34033203 269.98339844 C53.76819626 239.16808944 64.06471821 210.75192377 76.61654663 182.14569092 C106.11664326 118.758176 106.11664326 118.758176 103.5703125 51.63671875 C99.43982108 42.61303126 93.97831535 36.07566834 86.94140625 29.203125 C86.29558594 28.53667969 85.64976562 27.87023437 84.984375 27.18359375 C64.0300886 6.95973999 30.62338333 3.79688582 3.16015625 4.05859375 C-23.28850509 4.5491223 -47.35594119 12.3488464 -70.24609375 25.328125 Z " fill="#7CABF5" transform="translate(251.05859375,-0.203125)"/>
<path d="M0 0 C2.85523949 1.8145936 5.44049616 3.79000824 8 6 C8.57234375 6.47824219 9.1446875 6.95648438 9.734375 7.44921875 C46.39414029 40.82978485 48.24925412 111.15853527 50.484375 157.45239258 C52.08528329 192.79628777 52.83508808 230.6818203 43 265 C42.34 265 41.68 265 41 265 C39.97614532 258.62548167 38.95608872 252.25036176 37.9375 245.875 C37.78105011 244.89705475 37.62460022 243.9191095 37.46340942 242.91152954 C35.65401914 231.59034926 33.87451397 220.2659022 32.1875 208.92578125 C25.57682383 140.36927248 25.57682383 140.36927248 -7 83 C-12.26537708 79.73297863 -17.66160468 78.09950825 -23.83984375 79.2109375 C-31.7785583 82.11079345 -36.54666734 89.68872078 -40 97 C-42.33059166 102.55525298 -44.21027076 108.25136 -46 114 C-46.22042969 114.7017334 -46.44085938 115.4034668 -46.66796875 116.12646484 C-61.20051143 163.56640911 -61.038554 215.81773819 -62 265 C-63.66611905 265.042721 -65.33382885 265.04063832 -67 265 C-69.07316759 262.92683241 -68.74980128 258.79567668 -69.0859375 255.9375 C-69.23825333 254.67531647 -69.23825333 254.67531647 -69.39364624 253.38763428 C-69.7274278 250.59249602 -70.05240078 247.7964501 -70.375 245 C-70.48638306 244.04017212 -70.59776611 243.08034424 -70.71252441 242.09143066 C-74.27554627 211.14993856 -76.44047773 180.14169906 -77 149 C-77.02489502 147.80842285 -77.02489502 147.80842285 -77.05029297 146.59277344 C-77.13695114 142.05873225 -77.10064731 137.53303766 -77 133 C-76.98211426 132.04754395 -76.96422852 131.09508789 -76.94580078 130.11376953 C-75.01484836 36.73742062 -75.01484836 36.73742062 -47.21484375 8.08203125 C-34.45053878 -3.91686566 -16.09988038 -9.52428821 0 0 Z M-46.5 13.375 C-69.61577922 41.17712171 -72.01707568 88.04680063 -72.23828125 122.30859375 C-72.24784851 123.56983063 -72.25741577 124.8310675 -72.26727295 126.13052368 C-72.29189404 130.23287945 -72.30470143 134.33508737 -72.3125 138.4375 C-72.31438702 139.13662884 -72.31627403 139.83575768 -72.31821823 140.55607224 C-72.39389779 171.34277112 -71.65901021 202.52090544 -67 233 C-66.67 233 -66.34 233 -66 233 C-65.96036133 232.07815918 -65.92072266 231.15631836 -65.87988281 230.20654297 C-60.25892867 104.13878978 -60.25892867 104.13878978 -33 79 C-27.39548153 74.99677252 -21.75189899 74.26035535 -15 75 C-4.8994585 77.5914836 1.46418404 83.26799216 7.0625 91.875 C16.65227904 108.2661744 21.66885601 126.54497306 25.875 144.9375 C26.04674744 145.68577057 26.21849487 146.43404114 26.39544678 147.20498657 C30.32866552 164.4826501 33.05135675 181.89986638 35.61987305 199.42340088 C36.30220267 204.04840814 37.00368405 208.67052391 37.703125 213.29296875 C39.14885128 222.85999485 40.57923292 232.42923785 42 242 C43.7395157 238.94603687 44.33664077 236.4906218 44.62182617 232.99853516 C44.70419022 231.99672211 44.78655426 230.99490906 44.87141418 229.96273804 C44.98727119 228.32989365 44.98727119 228.32989365 45.10546875 226.6640625 C45.18935349 225.51708893 45.27323822 224.37011536 45.35966492 223.18838501 C46.29390012 209.25785969 46.35047714 195.33138623 46.3125 181.375 C46.31087456 180.00118015 46.30937021 178.62736015 46.3079834 177.25354004 C46.27667647 157.34613229 45.79019375 137.73781875 43 118 C42.77521973 116.31293945 42.77521973 116.31293945 42.54589844 114.59179688 C34.778287 54.87945568 34.778287 54.87945568 2.046875 6.3984375 C-14.72973376 -5.06344406 -32.95469804 -0.50664128 -46.5 13.375 Z " fill="#7CADF6" transform="translate(190,205)"/>
</svg>
